<?xml version="1.0" encoding="UTF-8"?>
<svg width="752pt" height="752pt" version="1.1" viewBox="0 0 752 752" xmlns="http://www.w3.org/2000/svg">
 <path d="m257.61 281.29c-52.309 0-94.715 42.406-94.715 94.715s42.406 94.715 94.715 94.715h236.79c52.309 0 94.715-42.406 94.715-94.715s-42.406-94.715-94.715-94.715zm0 18.941h236.79c42.141 0 75.773 33.633 75.773 75.773s-33.633 75.773-75.773 75.773h-236.79c-42.141 0-75.773-33.633-75.773-75.773s33.633-75.773 75.773-75.773zm0 18.941c-31.273 0-56.828 25.555-56.828 56.828 0 31.273 25.555 56.828 56.828 56.828 31.273 0 56.828-25.555 56.828-56.828 0-31.273-25.555-56.828-56.828-56.828zm0 18.941c21.035 0 37.887 16.852 37.887 37.887s-16.852 37.887-37.887 37.887c-21.035 0-37.887-16.852-37.887-37.887s16.852-37.887 37.887-37.887z"/>
</svg>
